<svg width="32" height="32" viewBox="0 0 32 32" xmlns="http://www.w3.org/2000/svg">
  <defs>
    <linearGradient id="iconGradient" x1="0%" y1="0%" x2="100%" y2="100%">
      <stop offset="0%" style="stop-color:#2563EB;stop-opacity:1" />
      <stop offset="50%" style="stop-color:#7C3AED;stop-opacity:1" />
      <stop offset="100%" style="stop-color:#4F46E5;stop-opacity:1" />
    </linearGradient>
  </defs>
  
  <!-- Modern rounded square background -->
  <rect x="2" y="2" width="28" height="28" rx="8" ry="8" fill="url(#iconGradient)"/>
  
  <!-- Letter H -->
  <rect x="6" y="8" width="2.5" height="16" fill="white"/>
  <rect x="11.5" y="8" width="2.5" height="16" fill="white"/>
  <rect x="6" y="15" width="8" height="2.5" fill="white"/>
  
  <!-- Letter S - simplified design -->
  <rect x="18" y="8" width="8" height="2.5" fill="white" rx="1"/>
  <rect x="18" y="8" width="2.5" height="6" fill="white"/>
  <rect x="18" y="13" width="8" height="2.5" fill="white" rx="1"/>
  <rect x="23.5" y="15.5" width="2.5" height="6" fill="white"/>
  <rect x="18" y="21.5" width="8" height="2.5" fill="white" rx="1"/>
  
</svg>
  
  <!-- Connection lines -->
  <line x1="8" y1="8" x2="24" y2="8" stroke="white" stroke-width="1" opacity="0.6"/>
  <line x1="8" y1="24" x2="24" y2="24" stroke="white" stroke-width="1" opacity="0.6"/>
  <line x1="8" y1="8" x2="8" y2="24" stroke="white" stroke-width="1" opacity="0.6"/>
  <line x1="24" y1="8" x2="24" y2="24" stroke="white" stroke-width="1" opacity="0.6"/>
</svg>
