<svg width="192" height="192" viewBox="0 0 32 32" xmlns="http://www.w3.org/2000/svg">
  <defs>
    <linearGradient id="iconGradient" x1="0%" y1="0%" x2="100%" y2="100%">
      <stop offset="0%" style="stop-color:#3B82F6;stop-opacity:1" />
      <stop offset="50%" style="stop-color:#8B5CF6;stop-opacity:1" />
      <stop offset="100%" style="stop-color:#6366F1;stop-opacity:1" />
    </linearGradient>
  </defs>
  
  <!-- Background -->
  <rect width="32" height="32" rx="6" fill="url(#iconGradient)"/>
  
  <!-- Data nodes/connections representing data engineering -->
  <!-- Main data flow -->
  <circle cx="8" cy="12" r="2" fill="white" opacity="0.9"/>
  <circle cx="16" cy="8" r="2" fill="white" opacity="0.9"/>
  <circle cx="24" cy="12" r="2" fill="white" opacity="0.9"/>
  <circle cx="12" cy="20" r="2" fill="white" opacity="0.9"/>
  <circle cx="20" cy="24" r="2" fill="white" opacity="0.9"/>
  
  <!-- Connection lines -->
  <line x1="8" y1="12" x2="16" y2="8" stroke="white" stroke-width="1.5" opacity="0.8"/>
  <line x1="16" y1="8" x2="24" y2="12" stroke="white" stroke-width="1.5" opacity="0.8"/>
  <line x1="8" y1="12" x2="12" y2="20" stroke="white" stroke-width="1.5" opacity="0.8"/>
  <line x1="12" y1="20" x2="20" y2="24" stroke="white" stroke-width="1.5" opacity="0.8"/>
  <line x1="24" y1="12" x2="20" y2="24" stroke="white" stroke-width="1.5" opacity="0.8"/>
  
  <!-- Center hub -->
  <circle cx="16" cy="16" r="3" fill="white"/>
  <circle cx="16" cy="16" r="1.5" fill="url(#iconGradient)"/>
  
  <!-- Connecting lines to center -->
  <line x1="16" y1="8" x2="16" y2="13" stroke="white" stroke-width="1" opacity="0.6"/>
  <line x1="8" y1="12" x2="13" y2="16" stroke="white" stroke-width="1" opacity="0.6"/>
  <line x1="24" y1="12" x2="19" y2="16" stroke="white" stroke-width="1" opacity="0.6"/>
  <line x1="12" y1="20" x2="16" y2="19" stroke="white" stroke-width="1" opacity="0.6"/>
  <line x1="20" y1="24" x2="16" y2="19" stroke="white" stroke-width="1" opacity="0.6"/>
</svg>
